<svg xmlns="http://www.w3.org/2000/svg" width="16.125" height="16" viewBox="0 0 16.125 16">
  <g id="IconAsignarUsuarios" transform="translate(-212 -61)">
    <path id="Trazado_172" data-name="Trazado 172" d="M0,0H16V16H0Z" transform="translate(212 61)" fill="none"/>
    <g id="IconUsarioSombra" transform="translate(222.17 60.767)">
      <path id="Trazado_102" data-name="Trazado 102" d="M19.169,19.837V18.391A2.787,2.787,0,0,0,16.5,15.5" transform="translate(-13.714 -7.017)" fill="none" stroke="gray" stroke-linecap="round" stroke-linejoin="round" stroke-width="1"/>
      <path id="Sustracción_4" data-name="Sustracción 4" d="M.5,7H.477A2.856,2.856,0,0,0,.89,5.952,2.43,2.43,0,0,0,2.5,3.5,2.3,2.3,0,0,0,.5,1C.462,1,.421,1,.381,1A1.6,1.6,0,0,0,.131.679,2.539,2.539,0,0,0-.47.188,2.6,2.6,0,0,1,.5,0a3.283,3.283,0,0,1,3,3.5A3.283,3.283,0,0,1,.5,7Z" transform="translate(0.8 0.233)" fill="gray"/>
    </g>
    <g id="IconUsuario" transform="translate(217.672 61.934)">
      <path id="Trazado_105" data-name="Trazado 105" d="M13.581,19.837V18.391c0-1.6-.758-2.891-1.694-2.891H8.5" transform="translate(-6.561 -7.247)" fill="none" stroke="gray" stroke-linecap="round" stroke-linejoin="round" stroke-width="1"/>
      <ellipse id="Elipse_2" data-name="Elipse 2" cx="2.5" cy="3" rx="2.5" ry="3" transform="translate(0.078 0.066)" fill="none" stroke="gray" stroke-linecap="round" stroke-linejoin="round" stroke-width="1"/>
    </g>
    <g id="IconPlus" transform="translate(212 68)">
      <circle id="Elipse_4" data-name="Elipse 4" cx="4.5" cy="4.5" r="4.5" fill="none"/>
      <line id="Línea_14" data-name="Línea 14" y2="6" transform="translate(4.5 1.5)" fill="none" stroke="gray" stroke-linecap="round" stroke-width="1.5"/>
      <line id="Línea_37" data-name="Línea 37" x1="6" transform="translate(1.5 4.5)" fill="none" stroke="gray" stroke-linecap="round" stroke-width="1.5"/>
    </g>
  </g>
</svg>
