<?xml version="1.0" encoding="UTF-8" standalone="no"?>
<svg
   xmlns:dc="http://purl.org/dc/elements/1.1/"
   xmlns:cc="http://creativecommons.org/ns#"
   xmlns:rdf="http://www.w3.org/1999/02/22-rdf-syntax-ns#"
   xmlns:svg="http://www.w3.org/2000/svg"
   xmlns="http://www.w3.org/2000/svg"
   xmlns:sodipodi="http://sodipodi.sourceforge.net/DTD/sodipodi-0.dtd"
   xmlns:inkscape="http://www.inkscape.org/namespaces/inkscape"
   id="bold"
   enable-background="new 0 0 24 24"
   height="512"
   viewBox="0 0 24 24"
   width="512"
   version="1.1"
   sodipodi:docname="tarjeta-de-identificacion.svg"
   inkscape:version="0.92.4 (5da689c313, 2019-01-14)">
  <metadata
     id="metadata8175">
    <rdf:RDF>
      <cc:Work
         rdf:about="">
        <dc:format>image/svg+xml</dc:format>
        <dc:type
           rdf:resource="http://purl.org/dc/dcmitype/StillImage" />
      </cc:Work>
    </rdf:RDF>
  </metadata>
  <defs
     id="defs8173" />
  <sodipodi:namedview
     pagecolor="#ffffff"
     bordercolor="#666666"
     borderopacity="1"
     objecttolerance="10"
     gridtolerance="10"
     guidetolerance="10"
     inkscape:pageopacity="0"
     inkscape:pageshadow="2"
     inkscape:window-width="1366"
     inkscape:window-height="705"
     id="namedview8171"
     showgrid="false"
     inkscape:zoom="0.921875"
     inkscape:cx="249.12938"
     inkscape:cy="295.29025"
     inkscape:window-x="-8"
     inkscape:window-y="-8"
     inkscape:window-maximized="1"
     inkscape:current-layer="bold" />
  <path
     d="M 21.865125,5.2291841 H 2.134875 C 0.9936163,5.2291841 0.066,6.1567859 0.066,7.2980445 v 9.4039105 c 0,1.141259 0.9276163,2.068861 2.068875,2.068861 h 19.73025 c 1.141259,0 2.068875,-0.927602 2.068875,-2.068861 V 7.2980445 c 0,-1.1412586 -0.927616,-2.0688604 -2.068875,-2.0688604 z M 6.5520937,8.2384356 c 1.0366872,0 1.880782,0.8440951 1.880782,1.8807824 C 8.4328757,11.155905 7.5887809,12 6.5520937,12 5.5154066,12 4.6713115,11.155905 4.6713115,10.119218 c 0,-1.0366873 0.8440951,-1.8807824 1.8807822,-1.8807824 z M 9.937502,15.19733 c 0,0.311457 -0.252777,0.564234 -0.564235,0.564234 H 3.7309204 c -0.3114575,0 -0.5642346,-0.252777 -0.5642346,-0.564234 v -0.376157 c 0,-1.141258 0.9276018,-2.06886 2.0688604,-2.06886 h 2.6330951 c 1.1412584,0 2.0688607,0.927602 2.0688607,2.06886 z m 10.739968,0.564234 h -8.29611 c -0.311457,0 -0.564234,-0.252777 -0.564234,-0.564234 0,-0.311458 0.252777,-0.564235 0.564234,-0.564235 h 8.29611 c 0.311458,0 0.564235,0.252777 0.564235,0.564235 0,0.311457 -0.252777,0.564234 -0.564235,0.564234 z m 0,-3.009251 h -8.29611 c -0.311457,0 -0.564234,-0.252777 -0.564234,-0.564235 0,-0.311457 0.252777,-0.564234 0.564234,-0.564234 h 8.29611 c 0.311458,0 0.564235,0.252777 0.564235,0.564234 0,0.311458 -0.252777,0.564235 -0.564235,0.564235 z m 0,-3.0092516 h -8.29611 c -0.311457,0 -0.564234,-0.2527772 -0.564234,-0.5642347 0,-0.3114575 0.252777,-0.5642347 0.564234,-0.5642347 h 8.29611 c 0.311458,0 0.564235,0.2527772 0.564235,0.5642347 0,0.3114575 -0.252777,0.5642347 -0.564235,0.5642347 z"
     id="path8168"
     inkscape:connector-curvature="0"
     style="stroke-width:0.7523129"
     sodipodi:nodetypes="ssssssssssssssssssssssssssssssssssssssssssss" />
</svg>
