<svg xmlns="http://www.w3.org/2000/svg" width="14" height="14" viewBox="0 0 14 14">
  <defs>
    <style>
      .cls-1 {
        fill: none;
      }

      .cls-2 {
        fill: gray;
      }
    </style>
  </defs>
  <g id="IconEscobita" transform="translate(-35 -100)">
    <rect id="Rectángulo_68" data-name="Rectángulo 68" class="cls-1" width="14" height="14" transform="translate(35 100)"/>
    <g id="escoba_3_" data-name="escoba (3)" transform="translate(35.002 100.1)">
      <g id="Grupo_33" data-name="Grupo 33" transform="translate(0.098 0)">
        <path id="Trazado_173" data-name="Trazado 173" class="cls-2" d="M13.489.4a1.385,1.385,0,0,0-1.957,0L7.825,4.111l-.079-.079a1.935,1.935,0,0,0-2.557-.157L.257,7.728a.412.412,0,0,0-.038.615L5.556,13.68a.412.412,0,0,0,.291.121h.025a.412.412,0,0,0,.3-.157L10.023,8.71a1.936,1.936,0,0,0-.157-2.557l-.085-.085,3.707-3.707A1.385,1.385,0,0,0,13.489.4ZM5.809,12.769l-1.2-1.2L6.084,9.946a.412.412,0,0,0-.609-.554L4.026,10.986,2.913,9.873,4.507,8.424a.412.412,0,0,0-.554-.609L2.33,9.29l-1.2-1.2L5.024,5.049,8.85,8.875ZM9.375,8.2l-.014.018L5.678,4.538,5.7,4.524a1.111,1.111,0,0,1,1.468.09l.37.37L8.909,6.359l.376.376A1.111,1.111,0,0,1,9.375,8.2Zm3.533-6.424L9.2,5.486l-.793-.793L12.114.986a.561.561,0,0,1,.793.793Z" transform="translate(-0.098 0)"/>
      </g>
    </g>
  </g>
</svg>
