<svg id="Selected-file" xmlns="http://www.w3.org/2000/svg" width="29.048" height="29.048" viewBox="0 0 29.048 29.048">
  <path id="Trazado_78" data-name="Trazado 78" d="M0,0H29.048V29.048H0Z" fill="none" fill-rule="evenodd"/>
  <path id="Trazado_79" data-name="Trazado 79" d="M5.248,1h8.326a1.815,1.815,0,0,1,1.172.429l5.766,4.877a1.815,1.815,0,0,1,.643,1.386V22.887c0,2.167-.025,2.32-2.248,2.32H5.248C3.025,25.207,3,25.054,3,22.887V3.32C3,1.153,3.025,1,5.248,1Zm3.8,13.314a1.21,1.21,0,0,0,0,2.421h8.472a1.21,1.21,0,0,0,0-2.421Zm0,4.841a1.21,1.21,0,0,0,0,2.421h3.631a1.21,1.21,0,0,0,0-2.421Z" transform="translate(0.631 0.21)" fill="#4c4e6f" opacity="0.3"/>
  <path id="Trazado_80" data-name="Trazado 80" d="M7.248,3h9.536a1.815,1.815,0,0,1,1.172.429l5.766,4.877a1.815,1.815,0,0,1,.643,1.386V24.887c0,2.167-.025,2.32-2.248,2.32H7.248C5.025,27.207,5,27.054,5,24.887V5.32C5,3.153,5.025,3,7.248,3ZM8.631,13.893a1.21,1.21,0,0,0,0,2.421H17.1a1.21,1.21,0,0,0,0-2.421Zm0,4.841a1.21,1.21,0,0,0,0,2.421h3.631a1.21,1.21,0,0,0,0-2.421Z" transform="translate(1.052 0.631)" fill="#4c4e6f"/>
</svg>
