<svg xmlns="http://www.w3.org/2000/svg" width="16" height="16" viewBox="0 0 16 16">
  <g id="IconAsignarPosicionUsuarioHover" data-name="IconAsignarPosicionUsuarioHover" transform="translate(-87 -51.306)">
    <rect id="Rectángulo_38" data-name="Rectángulo 38" width="16" height="16" transform="translate(87 51.306)" fill="none"/>
    <g id="IconPlus" transform="translate(86.8 58.683)">
      <line id="Línea_26" data-name="Línea 26" y2="6" transform="translate(4.7 1.123)" stroke="gray" stroke-linecap="round" stroke-width="1.3"/>
      <line id="Línea_27" data-name="Línea 27" x1="6" transform="translate(1.7 4.123)" stroke="gray" stroke-linecap="round" stroke-width="1.3"/>
    </g>
    <g id="IconTabla" transform="translate(91.077 52.019)" fill="none">
      <g id="Sustracción_8" data-name="Sustracción 8" transform="translate(-0.077 1.287)" fill="#fff">
        <path d="M 9.500405311584473 11.99970054626465 L 4.242435455322266 11.99970054626465 C 4.449865818023682 11.68970012664795 4.618855476379395 11.35381031036377 4.743895530700684 10.99980068206787 L 8.999995231628418 10.99980068206787 C 9.551345825195313 10.99980068206787 9.999905586242676 10.55125045776367 9.999905586242676 9.999899864196777 L 9.999905586242676 1.999800324440002 C 9.999905586242676 1.448450326919556 9.551345825195313 0.9999002814292908 8.999995231628418 0.9999002814292908 L 1.999805569648743 0.9999002814292908 C 1.448455572128296 0.9999002814292908 0.9999055862426758 1.448450326919556 0.9999055862426758 1.999800324440002 L 0.9999055862426758 5.027400493621826 C 0.8396955728530884 5.009820461273193 0.6717155575752258 5.000400066375732 0.4995055794715881 5.000400066375732 C 0.3331755995750427 5.000400066375732 0.1651155799627304 5.009650230407715 5.586242878052872e-06 5.027880191802979 L 5.586242878052872e-06 1.500300288200378 C 5.586242878052872e-06 0.6730302572250366 0.6730355620384216 2.731323149873788e-07 1.500305533409119 2.731323149873788e-07 L 9.500405311584473 2.731323149873788e-07 C 10.32717514038086 2.731323149873788e-07 10.99980545043945 0.6730302572250366 10.99980545043945 1.500300288200378 L 10.99980545043945 10.50030040740967 C 10.99980545043945 11.32707023620605 10.32717514038086 11.99970054626465 9.500405311584473 11.99970054626465 Z" fill="gray"/>
      </g>
      <g id="Rectángulo_28" data-name="Rectángulo 28" transform="translate(2.423 0.287)" >
        <path d="M1.5,0h3A1.5,1.5,0,0,1,6,1.5V3A0,0,0,0,1,6,3H0A0,0,0,0,1,0,3V1.5A1.5,1.5,0,0,1,1.5,0Z" fill="gray" />
        
      </g>
      <g id="Sustracción_11" data-name="Sustracción 11" transform="translate(1.904 3.666)" stroke-linecap="round" fill="none" stroke-width="0.9" >
        <path d="M6.759,7.17H3.019c0-.017,0-.033,0-.049a4.554,4.554,0,0,0-.044-.63H6.759a.34.34,0,0,1,0,.68Zm0-2.717H2.343a.34.34,0,1,1,0-.68H6.759a.34.34,0,0,1,0,.68ZM1.28,3.567h0C1.19,3.5,1.1,3.43,1,3.368l.372-.574a.17.17,0,0,1,.143-.077.17.17,0,0,1,.143.262l-.381.586Zm-.7-1.8A.171.171,0,0,1,.443,1.7L.034,1.155A.17.17,0,0,1,0,1.028.17.17,0,0,1,.169.882.169.169,0,0,1,.305.95l.271.359.8-1.233A.17.17,0,0,1,1.519,0a.171.171,0,0,1,.166.135.168.168,0,0,1-.023.128L.736,1.687A.168.168,0,0,1,.6,1.763Zm6.18-.03H2.343a.34.34,0,1,1,0-.68H6.759a.34.34,0,0,1,0,.68Z" fill="gray"/>
        <path d="M 6.759005069732666 7.170305252075195 L 3.019194841384888 7.170305252075195 C 3.019365072250366 7.153775215148926 3.019505023956299 7.13730525970459 3.019505023956299 7.120805263519287 C 3.019505023956299 6.909995079040527 3.004775047302246 6.69803524017334 2.975714921951294 6.490805149078369 L 6.759005069732666 6.490795135498047 C 6.946084976196289 6.490795135498047 7.098304748535156 6.643004894256592 7.098304748535156 6.830105304718018 C 7.098304748535156 7.01769495010376 6.946084976196289 7.170305252075195 6.759005069732666 7.170305252075195 Z M 6.759005069732666 4.453195095062256 L 2.342705011367798 4.453195095062256 C 2.155114889144897 4.453195095062256 2.00250506401062 4.300585269927979 2.00250506401062 4.112995147705078 C 2.00250506401062 3.925904989242554 2.155114889144897 3.77369499206543 2.342705011367798 3.77369499206543 L 6.759005069732666 3.77369499206543 C 6.946084976196289 3.77369499206543 7.098304748535156 3.925904989242554 7.098304748535156 4.112995147705078 C 7.098304748535156 4.300585269927979 6.946084976196289 4.453195095062256 6.759005069732666 4.453195095062256 Z M 1.280074954032898 3.567115068435669 L 1.279204964637756 3.566445112228394 C 1.190064907073975 3.497125148773193 1.097384929656982 3.430474996566772 1.003724932670593 3.368345022201538 L 1.376094937324524 2.794485092163086 C 1.407694935798645 2.746255159378052 1.461034893989563 2.717455148696899 1.518754959106445 2.717455148696899 C 1.551604986190796 2.717455148696899 1.583504915237427 2.726985216140747 1.611004948616028 2.745005130767822 C 1.649055004119873 2.769645214080811 1.675254940986633 2.807675123214722 1.684794902801514 2.852095127105713 C 1.694324970245361 2.896515130996704 1.686015009880066 2.94190502166748 1.661404967308044 2.979895114898682 L 1.280664920806885 3.566195011138916 L 1.280074954032898 3.567115068435669 Z M 0.5787049531936646 1.764895081520081 C 0.5255349278450012 1.764895081520081 0.4747249484062195 1.739665150642395 0.4428049623966217 1.697395086288452 L 0.03420495241880417 1.154695153236389 C 0.006744953338056803 1.118085145950317 -0.004965046886354685 1.073225140571594 0.001244953251443803 1.028365135192871 C 0.007454953156411648 0.9834250807762146 0.03099495358765125 0.9435850977897644 0.06750494986772537 0.9161950945854187 C 0.09715495258569717 0.8940451145172119 0.1323149502277374 0.8823450803756714 0.1691949516534805 0.8823450803756714 C 0.2231249511241913 0.8823450803756714 0.2726549506187439 0.9071550965309143 0.3051049411296844 0.9504051208496094 L 0.5760049819946289 1.309505105018616 L 1.376094937324524 0.07649510353803635 C 1.407704949378967 0.02824510633945465 1.461034893989563 -0.0005548931658267975 1.518754959106445 -0.0005548931658267975 C 1.551594972610474 -0.0005548931658267975 1.583494901657104 0.008975107222795486 1.611004948616028 0.02699510753154755 C 1.649055004119873 0.05164510756731033 1.675264954566956 0.0896851047873497 1.684794902801514 0.1341051012277603 C 1.694324970245361 0.1785251051187515 1.686015009880066 0.2239051014184952 1.661404967308044 0.2618951201438904 L 0.736204981803894 1.68659508228302 C 0.7057649493217468 1.733565092086792 0.6539449691772461 1.762155055999756 0.5976049304008484 1.763095140457153 C 0.591094970703125 1.764025092124939 0.5848949551582336 1.764895081520081 0.5787049531936646 1.764895081520081 Z M 6.759005069732666 1.735195159912109 L 2.342705011367798 1.735195159912109 C 2.155114889144897 1.735195159912109 2.00250506401062 1.582585096359253 2.00250506401062 1.394995093345642 C 2.00250506401062 1.207905054092407 2.155114889144897 1.055695056915283 2.342705011367798 1.055695056915283 L 6.759005069732666 1.055695056915283 C 6.946084976196289 1.055695056915283 7.098304748535156 1.207905054092407 7.098304748535156 1.394995093345642 C 7.098304748535156 1.582585096359253 6.946084976196289 1.735195159912109 6.759005069732666 1.735195159912109 Z" fill="gray"/>
      </g>
    </g>
  </g>
</svg>
