<?xml version="1.0" encoding="UTF-8" standalone="no"?>
<!-- Generator: Adobe Illustrator 19.0.0, SVG Export Plug-In . SVG Version: 6.00 Build 0)  -->

<svg
   xmlns:dc="http://purl.org/dc/elements/1.1/"
   xmlns:cc="http://creativecommons.org/ns#"
   xmlns:rdf="http://www.w3.org/1999/02/22-rdf-syntax-ns#"
   xmlns:svg="http://www.w3.org/2000/svg"
   xmlns="http://www.w3.org/2000/svg"
   xmlns:sodipodi="http://sodipodi.sourceforge.net/DTD/sodipodi-0.dtd"
   xmlns:inkscape="http://www.inkscape.org/namespaces/inkscape"
   version="1.1"
   id="Layer_1"
   x="0px"
   y="0px"
   viewBox="0 0 512 512"
   style="enable-background:new 0 0 512 512;"
   xml:space="preserve"
   sodipodi:docname="tarjeta-de-credito.svg"
   inkscape:version="0.92.4 (5da689c313, 2019-01-14)"><metadata
   id="metadata8816"><rdf:RDF><cc:Work
       rdf:about=""><dc:format>image/svg+xml</dc:format><dc:type
         rdf:resource="http://purl.org/dc/dcmitype/StillImage" /></cc:Work></rdf:RDF></metadata><defs
   id="defs8814" /><sodipodi:namedview
   pagecolor="#ffffff"
   bordercolor="#666666"
   borderopacity="1"
   objecttolerance="10"
   gridtolerance="10"
   guidetolerance="10"
   inkscape:pageopacity="0"
   inkscape:pageshadow="2"
   inkscape:window-width="1366"
   inkscape:window-height="705"
   id="namedview8812"
   showgrid="false"
   inkscape:zoom="0.921875"
   inkscape:cx="173.38096"
   inkscape:cy="287.89934"
   inkscape:window-x="-8"
   inkscape:window-y="-8"
   inkscape:window-maximized="1"
   inkscape:current-layer="g8779" />
<g
   id="g8773"
   transform="translate(4,-18)">
	<g
   id="g8771">
		<path
   d="m 372,131.222 v -0.372 c 0,-14.972 -13.384,-26.848 -28.352,-26.848 H 25.764 C 10.796,104.002 0,115.878 0,130.85 v 185.668 c 0,14.968 10.796,27.484 25.764,27.484 h 116.992 c 2.212,0 4,-1.956 4,-4.172 0,-2.204 -1.788,-4.084 -4,-4.084 l 21.124,-88.752 c -10.564,0 -13.336,49.068 -13.336,38.508 l 40.668,-65.5 h 149.336 l 22.248,-8.94 c 0,2.208 2.392,4.404 4.6,4.404 2.208,0 4.604,-1.392 4.604,-3.596 v -78.948 c 0,-0.28 0.172,-0.548 0.172,-0.852 0,-0.3 -0.172,-0.564 -0.172,-0.848 z m -268,168.78 c 0,2.212 -1.788,4 -4,4 H 36 c -2.212,0 -4,-1.788 -4,-4 v -20 c 0,-2.212 1.788,-4 4,-4 h 64 c 2.212,0 4,1.788 4,4 z m 38.384,4 h -27.96 c -2.212,0 -2.424,-2.156 -2.424,-4.368 v -20 c 0,-2.212 0.212,-3.632 2.42,-3.632 h 27.96 c 2.212,0 4.808,1.604 4.808,3.816 0,2.212 -3.188,3.816 -3.188,3.816 v 12 c 0,0 3.192,1.972 3.192,4.184 0,2.212 -2.596,4.184 -4.808,4.184 z M 348,168.002 H 24 v -32 H 343.624 348 Z"
   id="path8769"
   inkscape:connector-curvature="0"
   sodipodi:nodetypes="sssssssssccccccsssssssssssssssssssssccsscccccc" />
	</g>
</g>
<g
   id="g8779"
   transform="translate(4,-18)">
	<g
   id="g8777">
		<path
   d="M 476.884,208.002 H 159.116 c -14.976,0 -27.116,12.14 -27.116,27.116 v 185.764 c 0,14.976 12.14,27.116 27.116,27.116 H 476.88 c 14.976,0 27.27723,-12.14087 27.116,-27.116 V 235.118 H 504 c 0,-14.976 -12.14,-27.116 -27.116,-27.116 z m -80.916,47.836 c 8.384,0 16.064,3.036 22.032,8.052 5.96,-5.016 13.64,-8.052 22.024,-8.052 18.908,0 34.288,15.384 34.288,34.292 0,18.904 -15.384,34.288 -34.288,34.288 -8.384,0 -16.064,-3.036 -22.024,-8.052 -5.968,5.016 -13.648,8.052 -22.032,8.052 -18.908,0 -34.288,-15.384 -34.288,-34.288 0,-18.912 15.384,-34.292 34.288,-34.292 z M 164,277.342 c 0,-11.784 9.552,-21.34 21.336,-21.34 h 45.328 c 11.784,0 21.336,9.556 21.336,21.34 v 25.316 c 0,11.788 -9.552,21.344 -21.336,21.344 H 185.336 C 173.552,324.002 164,314.446 164,302.658 Z m 72,118.66 c 0,2.212 -1.788,4 -4,4 h -64 c -2.212,0 -4,-1.788 -4,-4 v -20 c 0,-2.212 1.788,-4 4,-4 h 64 c 2.212,0 4,1.788 4,4 z m 80,0 c 0,2.212 -1.788,4 -4,4 h -64 c -2.212,0 -4,-1.788 -4,-4 v -20 c 0,-2.212 1.788,-4 4,-4 h 64 c 2.212,0 4,1.788 4,4 z m 80,0 c 0,2.212 -1.788,4 -4,4 h -64 c -2.212,0 -4,-1.788 -4,-4 v -20 c 0,-2.212 1.788,-4 4,-4 h 64 c 2.212,0 4,1.788 4,4 z m 80,0 c 0,2.212 -1.788,4 -4,4 h -64 c -2.212,0 -4,-1.788 -4,-4 v -20 c 0,-2.212 1.788,-4 4,-4 h 64 c 2.212,0 4,1.788 4,4 z"
   id="path8775"
   inkscape:connector-curvature="0"
   sodipodi:nodetypes="sssssssccsscssscssssssssssssssssssssssssssssssssssssssssssssssss" />
	</g>
</g>
<g
   id="g8781">
</g>
<g
   id="g8783">
</g>
<g
   id="g8785">
</g>
<g
   id="g8787">
</g>
<g
   id="g8789">
</g>
<g
   id="g8791">
</g>
<g
   id="g8793">
</g>
<g
   id="g8795">
</g>
<g
   id="g8797">
</g>
<g
   id="g8799">
</g>
<g
   id="g8801">
</g>
<g
   id="g8803">
</g>
<g
   id="g8805">
</g>
<g
   id="g8807">
</g>
<g
   id="g8809">
</g>
</svg>