<svg xmlns="http://www.w3.org/2000/svg"  width="24" height="24" viewBox="0 0 24 24">
  <g id="IconAsignarConceptosAGrupoConceptos" transform="translate(-87 -51)">
    <rect id="Rectángulo_38"  data-name="Rectángulo 38" width="24" height="24" transform="translate(87 51)" fill="none"/>
    <g id="IconPlus" transform="translate(-1 -10)">
      <line id="Línea_26" data-name="Línea 26" y2="8" transform="translate(93.5 75.5)"  stroke="gray" stroke-linecap="round" stroke-width="1.3"/>
      <line id="Línea_27" data-name="Línea 27" x1="8" transform="translate(89.5 79.5)"  stroke="gray" stroke-linecap="round" stroke-width="1.3"/>
    </g>
    <g id="IconTabla" transform="translate(-0.816 -11.131)">
      <g id="Sustracción_8" data-name="Sustracción 8" transform="translate(94 65)">
        <path d="M 13.52610397338867 18.63129997253418 L 4.810968399047852 18.63129997253418 C 5.005249500274658 18.29364776611328 5.167961597442627 17.9387092590332 5.298069000244141 17.56850051879883 L 12.49290466308594 17.56850051879883 C 13.87129402160645 17.56850051879883 14.99270439147949 16.44709014892578 14.99270439147949 15.06869983673096 L 14.99270439147949 4.063499927520752 C 14.99270439147949 2.684609889984131 13.87129402160645 1.56279993057251 12.49290466308594 1.56279993057251 L 4.032004356384277 1.56279993057251 C 2.653614282608032 1.56279993057251 1.532204270362854 2.684609889984131 1.532204270362854 4.063499927520752 L 1.532204270362854 9.422940254211426 C 1.196893215179443 9.30191707611084 0.8521339297294617 9.211244583129883 0.5000042915344238 9.151541709899902 L 0.5000042915344238 3.000600099563599 C 0.5000042915344238 1.621760010719299 1.62136435508728 0.5 2.999704360961914 0.5 L 13.52610397338867 0.5 C 14.90494441986084 0.5 16.02670478820801 1.621760010719299 16.02670478820801 3.000600099563599 L 16.02670478820801 16.13159942626953 C 16.02670478820801 17.50993919372559 14.90494441986084 18.63129997253418 13.52610397338867 18.63129997253418 Z" stroke="gray"/>
      </g>
      <path id="Sustracción_10" data-name="Sustracción 10" d="M11.526,16.132H3.915a6.066,6.066,0,0,0,.235-1.677A5.885,5.885,0,0,0,1,9.189V3A2,2,0,0,1,3,1h8.527a2,2,0,0,1,2,2V14.132A2,2,0,0,1,11.526,16.132Z" transform="translate(95 66)" fill="none"/>
    </g>
  </g>
</svg>
